<svg width="50" height="50" viewBox="0 0 50 50" fill="none" xmlns="http://www.w3.org/2000/svg">
<rect width="50" height="50" rx="4" fill="#007FFF"/>
<path d="M28.3334 26.6666V19.1666C28.3334 16.6666 30.0001 16.6666 30.0001 13.3333C30.0001 12.0072 29.4733 10.7355 28.5356 9.79778C27.5979 8.8601 26.3262 8.33331 25.0001 8.33331C23.674 8.33331 22.4022 8.8601 21.4645 9.79778C20.5269 10.7355 20.0001 12.0072 20.0001 13.3333C20.0001 16.6666 21.6667 16.6666 21.6667 19.1666V26.6666M13.3334 41.6666H36.6667M38.3334 30.8333C38.3334 29.7282 37.8944 28.6684 37.113 27.887C36.3316 27.1056 35.2718 26.6666 34.1667 26.6666H15.8334C14.7283 26.6666 13.6685 27.1056 12.8871 27.887C12.1057 28.6684 11.6667 29.7282 11.6667 30.8333V33.3333C11.6667 33.7753 11.8423 34.1993 12.1549 34.5118C12.4675 34.8244 12.8914 35 13.3334 35H36.6667C37.1088 35 37.5327 34.8244 37.8453 34.5118C38.1578 34.1993 38.3334 33.7753 38.3334 33.3333V30.8333Z" stroke="#F0F7FF" stroke-width="2" stroke-linecap="round" stroke-linejoin="round"/>
</svg>
