<svg width="24" height="48" viewBox="0 0 24 48" fill="none" xmlns="http://www.w3.org/2000/svg">
<path d="M16.5 19H11V15H18V11H22V19H19.5L18 20.5L16.5 19Z" stroke="#82899A" stroke-width="2" stroke-linecap="round" stroke-linejoin="round"/>
<path d="M2 3H18V15H8.5L6.5 17L4.5 15H2V3Z" stroke="#82899A" stroke-width="2" stroke-linecap="round" stroke-linejoin="round"/>
<path d="M9.5 9H10M13 9H13.5M6 9H6.5" stroke="#82899A" stroke-width="2" stroke-linecap="round"/>
<path d="M3.97133 33.1123C3.96905 33.7389 3.88246 34.3188 3.71156 34.8521C3.54066 35.3853 3.25014 35.882 2.83998 36.3423C2.4321 36.8026 1.88409 37.2048 1.19594 37.5488L0.88832 37.1387C1.43519 36.8652 1.88751 36.5553 2.24525 36.209C2.60528 35.8604 2.88214 35.4764 3.07582 35.0571L1.00453 35.252L0.908828 34.7871L3.23988 34.6333C3.34698 34.2961 3.41306 33.9372 3.43812 33.5566H1.21644V33.1123H3.97133ZM5.91273 38.5537H5.37953V35.3682H3.95082V34.9238H5.37953V32.4766H5.91273V38.5537ZM11.9989 36.4414H10.577V38.6016H10.0438V36.4414H8.39637V38.6016H7.86316V36.4414H6.43445V35.9971H11.9989V36.4414ZM11.2743 35.1768H7.15223V32.8115H11.2743V35.1768ZM7.67859 34.7461H10.7411V33.249H7.67859V34.7461ZM17.0118 38.5537H16.4786V32.4766H17.0118V38.5537ZM12.9239 36.5234C13.9516 36.5189 14.92 36.4209 15.8292 36.2295L15.9044 36.6875C15.3872 36.7946 14.8836 36.8721 14.3937 36.9199C13.9038 36.9655 13.4025 36.9883 12.8898 36.9883H12.3976V33.0781H12.9239V36.5234ZM20.9105 33.4814H18.4837V34.7393H20.6918V35.1768H18.4837V36.6465C19.0694 36.6465 19.5764 36.6328 20.0047 36.6055C20.4354 36.5758 20.8763 36.5234 21.3275 36.4482L21.3822 36.8926C20.931 36.9678 20.4855 37.019 20.0458 37.0464C19.606 37.0715 19.0694 37.0863 18.4359 37.0908H17.9505V33.0303H20.9105V33.4814ZM22.5853 38.5537H22.0453V32.4766H22.5853V38.5537Z" fill="#82899A"/>
</svg>
