<svg width="24" height="48" viewBox="0 0 24 48" fill="none" xmlns="http://www.w3.org/2000/svg">
<path d="M6.01609 4.50199C5.62494 4.50172 5.23757 4.57857 4.87614 4.72814C4.51472 4.8777 4.18632 5.09705 3.90974 5.37364C3.63315 5.65022 3.4138 5.97862 3.26424 6.34004C3.11467 6.70147 3.03782 7.08884 3.03809 7.47999C3.03809 9.71299 6.01609 13.01 6.01609 13.01C6.01609 13.01 8.99409 9.71299 8.99409 7.47999C8.99435 7.08884 8.9175 6.70147 8.76794 6.34004C8.61837 5.97862 8.39902 5.65022 8.12244 5.37364C7.84585 5.09705 7.51746 4.8777 7.15603 4.72814C6.7946 4.57857 6.40724 4.50172 6.01609 4.50199ZM6.01609 8.54299C5.80584 8.54299 5.60032 8.48064 5.42552 8.36384C5.25071 8.24704 5.11446 8.08102 5.034 7.88678C4.95355 7.69254 4.9325 7.47881 4.97351 7.27261C5.01453 7.0664 5.11577 6.877 5.26443 6.72833C5.4131 6.57967 5.6025 6.47843 5.80871 6.43741C6.01491 6.3964 6.22864 6.41745 6.42288 6.4979C6.61712 6.57836 6.78313 6.71461 6.89994 6.88942C7.01674 7.06423 7.07909 7.26975 7.07909 7.47999C7.07882 7.76183 6.96674 8.03206 6.76745 8.23135C6.56815 8.43064 6.29793 8.54272 6.01609 8.54299ZM21.0241 11.296V6.99599C21.0166 6.54448 20.948 6.09607 20.8201 5.66299C20.492 4.51831 19.7658 3.52847 18.7724 2.87185C17.779 2.21523 16.5838 1.93501 15.4021 2.0817C14.2204 2.22839 13.1299 2.79234 12.3272 3.67191C11.5245 4.55148 11.0624 5.68882 11.0241 6.87899V7.12699L11.0141 7.99699V17.949H11.0101V17.99C11.0101 18.5204 10.7994 19.0291 10.4243 19.4042C10.0492 19.7793 9.54052 19.99 9.01009 19.99C8.47965 19.99 7.97095 19.7793 7.59587 19.4042C7.2208 19.0291 7.01009 18.5204 7.01009 17.99L7.01409 17.953H7.01009V16.01H5.01009V18.01H5.01209C5.01275 19.0703 5.4346 20.087 6.18484 20.8363C6.93508 21.5856 7.95225 22.0062 9.01259 22.0055C10.0729 22.0048 11.0896 21.583 11.8389 20.8327C12.5882 20.0825 13.0087 19.0653 13.0081 18.005H13.0101V17.023H13.0151V8.99699L13.0251 7.12699V6.87999C13.0536 6.09275 13.3905 5.34828 13.9631 4.80726C14.5357 4.26625 15.298 3.97207 16.0856 3.98821C16.8732 4.00436 17.6229 4.32954 18.1728 4.89356C18.7228 5.45759 19.0289 6.21524 19.0251 7.00299V11.278C18.6421 11.4947 18.3414 11.8316 18.1695 12.2366C17.9975 12.6417 17.964 13.0921 18.0741 13.5181C18.1842 13.9441 18.4318 14.3218 18.7785 14.5928C19.1252 14.8637 19.5515 15.0127 19.9915 15.0167C20.4315 15.0207 20.8605 14.8794 21.212 14.6147C21.5635 14.35 21.8178 13.9768 21.9356 13.5528C22.0533 13.1289 22.0279 12.6779 21.8633 12.2699C21.6987 11.8619 21.4031 11.5195 21.0241 11.296Z" fill="#82899A"/>
<path d="M11.0023 33.7988V33.9648C10.9991 34.4303 10.9893 34.8356 10.973 35.1807C10.96 35.5225 10.9275 35.918 10.8754 36.3672C10.8233 36.8132 10.7452 37.2949 10.641 37.8125L9.88906 37.7246C10.0388 37.041 10.1413 36.346 10.1967 35.6396L4.88906 35.957L4.76211 35.2832L10.2309 35.0586C10.2439 34.7526 10.2504 34.3327 10.2504 33.7988V33.5938H5.01602V32.959H11.0023V33.7988ZM11.9691 39.6094H4.05898V38.9551H7.16445V36.709H7.91641V38.9551H11.9691V39.6094ZM16.3277 33.3887C16.3277 33.8607 16.4856 34.318 16.8014 34.7607C17.1204 35.2002 17.5289 35.5745 18.027 35.8838C18.525 36.1898 19.0296 36.39 19.5406 36.4844L19.1891 37.1289C18.7464 37.0247 18.3102 36.8555 17.8805 36.6211C17.4508 36.3867 17.065 36.097 16.7232 35.752C16.3814 35.4069 16.1194 35.0277 15.9371 34.6143C15.7548 35.0244 15.4928 35.402 15.151 35.7471C14.8092 36.0921 14.4234 36.3835 13.9938 36.6211C13.5673 36.8555 13.1311 37.0247 12.6852 37.1289L12.3336 36.4844C12.8447 36.3835 13.3476 36.1816 13.8424 35.8789C14.3372 35.5729 14.7408 35.2002 15.0533 34.7607C15.3691 34.3213 15.527 33.8639 15.527 33.3887V32.7246H16.3277V33.3887ZM19.9508 39.6094H12.0016V38.9746H19.9508V39.6094Z" fill="#82899A"/>
</svg>
