<svg width="24" height="48" viewBox="0 0 24 48" fill="none" xmlns="http://www.w3.org/2000/svg">
<path fill-rule="evenodd" clip-rule="evenodd" d="M12.6139 1.21065C12.2528 0.929784 11.7472 0.929784 11.3861 1.21065L2.38606 8.21065C2.14247 8.4001 2 8.69141 2 9V20C2 20.7957 2.31607 21.5587 2.87868 22.1213C3.44129 22.6839 4.20435 23 5 23H19C19.7957 23 20.5587 22.6839 21.1213 22.1213C21.6839 21.5587 22 20.7957 22 20V9C22 8.69141 21.8575 8.4001 21.6139 8.21065L12.6139 1.21065ZM16 21H19C19.2652 21 19.5196 20.8946 19.7071 20.7071C19.8946 20.5196 20 20.2652 20 20V9.48908L12 3.26686L4 9.48908V20C4 20.2652 4.10536 20.5196 4.29289 20.7071C4.48043 20.8946 4.73478 21 5 21H8V12C8 11.4477 8.44772 11 9 11H15C15.5523 11 16 11.4477 16 12V21ZM10 21V13H14V21H10Z" fill="#82899A"/>
<path d="M14.9736 40.6738H8.99707V38.1934H14.9736V40.6738ZM9.75879 40.0781H14.2217V38.7891H9.75879V40.0781ZM15.4814 33.4375H8.44043V32.8418H11.6045V31.9824H12.3662V32.8418H15.4814V33.4375ZM11.9854 33.7891C12.8936 33.7956 13.5885 33.903 14.0703 34.1113C14.5553 34.3164 14.7979 34.6191 14.7979 35.0195C14.7979 35.3971 14.5895 35.6885 14.1729 35.8936C13.7562 36.0986 13.154 36.2158 12.3662 36.2451V36.9141H15.9404V37.5293H8.03027V36.9141H11.6045V36.2451C10.8135 36.2158 10.208 36.0986 9.78809 35.8936C9.37142 35.6885 9.16309 35.3971 9.16309 35.0195C9.16309 34.6191 9.4056 34.3164 9.89062 34.1113C10.3789 33.903 11.0771 33.7956 11.9854 33.7891ZM11.9854 34.3262C11.3376 34.3327 10.8411 34.3945 10.4961 34.5117C10.151 34.6289 9.98014 34.7982 9.9834 35.0195C9.97689 35.2409 10.1494 35.4118 10.501 35.5322C10.8525 35.6527 11.3473 35.7129 11.9854 35.7129C12.6201 35.7129 13.1117 35.6527 13.46 35.5322C13.8115 35.4118 13.9873 35.2409 13.9873 35.0195C13.9873 34.7982 13.8132 34.6289 13.4648 34.5117C13.1198 34.3945 12.6266 34.3327 11.9854 34.3262Z" fill="#82899A"/>
</svg>
