<svg width="24" height="48" viewBox="0 0 24 48" fill="none" xmlns="http://www.w3.org/2000/svg">
<path fill-rule="evenodd" clip-rule="evenodd" d="M8 1C7.81314 1 7.63825 1.05125 7.48862 1.14047L0.503861 5.13176C0.192286 5.3098 0 5.64114 0 6V22C0 22.3565 0.189758 22.686 0.498073 22.8649C0.806388 23.0438 1.18664 23.0451 1.49614 22.8682L8.03147 19.1338L15.5348 22.8854C15.6646 22.9538 15.8112 22.9944 15.9669 22.9995C15.9779 22.9998 15.989 23 16 23C16.1869 23 16.3618 22.9487 16.5114 22.8595L23.4961 18.8682C23.8077 18.6902 24 18.3589 24 18V2C24 1.64353 23.8102 1.31401 23.5019 1.13509C23.1936 0.956168 22.8134 0.954898 22.5039 1.13176L15.9685 4.86623L8.4652 1.11457C8.32855 1.04262 8.17321 1.00139 8.00837 1.00003L8 1ZM17 20.2768L22 17.4197V3.72318L17 6.58032V20.2768ZM15 6.61803L9 3.61803V17.382L15 20.382V6.61803ZM2 6.58032L7 3.72318V17.4197L2 20.2768V6.58032Z" fill="#82899A"/>
<path d="M7.16445 34.7754C7.16445 35.2539 7.27025 35.7308 7.48184 36.2061C7.69342 36.6781 7.97826 37.0996 8.33633 37.4707C8.69766 37.8385 9.09154 38.1152 9.51797 38.3008L9.08828 38.9062C8.57721 38.6719 8.1166 38.3187 7.70645 37.8467C7.29629 37.3714 6.9903 36.8359 6.78848 36.2402C6.58665 36.8783 6.28066 37.4561 5.87051 37.9736C5.46361 38.488 5.01276 38.8704 4.51797 39.1211L4.05898 38.5156C4.46914 38.3171 4.85163 38.0176 5.20645 37.6172C5.56452 37.2168 5.85098 36.766 6.06582 36.2646C6.28066 35.7601 6.38971 35.2637 6.39297 34.7754V33.6426H4.34219V33.0078H9.23477V33.6426H7.16445V34.7754ZM11.2172 40.791H10.4457V32.1094H11.2172V40.791ZM19.0133 36.8066H16.3277V39.0527H19.9508V39.6973H12.0016V39.0527H15.5758V36.8066H13.0172V32.8223H18.9254V33.4473H13.7887V36.1816H19.0133V36.8066Z" fill="#82899A"/>
</svg>
