<svg width="24" height="48" viewBox="0 0 24 48" fill="none" xmlns="http://www.w3.org/2000/svg">
<path fill-rule="evenodd" clip-rule="evenodd" d="M12 2C9.23858 2 7 4.23858 7 7C7 9.76142 9.23858 12 12 12C14.7614 12 17 9.76142 17 7C17 4.23858 14.7614 2 12 2ZM9 7C9 5.34315 10.3431 4 12 4C13.6569 4 15 5.34315 15 7C15 8.65685 13.6569 10 12 10C10.3431 10 9 8.65685 9 7Z" fill="#82899A"/>
<path d="M8 14C6.67392 14 5.40215 14.5268 4.46447 15.4645C3.52678 16.4021 3 17.6739 3 19V21C3 21.5523 3.44772 22 4 22C4.55228 22 5 21.5523 5 21V19C5 18.2043 5.31607 17.4413 5.87868 16.8787C6.44129 16.3161 7.20435 16 8 16H16C16.7956 16 17.5587 16.3161 18.1213 16.8787C18.6839 17.4413 19 18.2044 19 19V21C19 21.5523 19.4477 22 20 22C20.5523 22 21 21.5523 21 21V19C21 17.6739 20.4732 16.4021 19.5355 15.4645C18.5979 14.5268 17.3261 14 16 14H8Z" fill="#82899A"/>
<path d="M8.32801 33.0508L9.99598 37.125H10.0575L11.7255 33.0508H12.4637V38H11.8827V34.2607H11.8348L10.2968 38H9.74988L8.2118 34.2607H8.17078V38H7.58973V33.0508H8.32801ZM13.3478 33.0508L14.7081 35.3477H14.7696L16.13 33.0508H16.8409L15.0499 35.9697V38H14.4279V35.9697L12.6437 33.0508H13.3478Z" fill="#82899A"/>
</svg>
